<?plantuml 1.2026.1?>
<svg xmlns="http://www.w3.org/2000/svg" contentStyleType="text/css"
     data-diagram-type="CLASS" height="584px" preserveAspectRatio="none"
     style="width:1617px;height:584px;background:#FFFFFF;" version="1.1" viewBox="0 0 1617 584" width="1617px"
     zoomAndPan="magnify">
    <defs/>
    <g><!--cluster Common-->
        <g class="cluster" data-qualified-name="Common" data-source-line="14" id="ent0003">
            <path d="M16.5,22 L78.1621,22 A3.75,3.75 0 0 1 80.6621,24.5 L87.6621,45.6094 L625.5,45.6094 A2.5,2.5 0 0 1 628,48.1094 L628,261.5 A2.5,2.5 0 0 1 625.5,264 L16.5,264 A2.5,2.5 0 0 1 14,261.5 L14,24.5 A2.5,2.5 0 0 1 16.5,22"
                  fill="none" style="stroke:#000000;stroke-width:1.5;"/>
            <line style="stroke:#000000;stroke-width:1.5;" x1="14" x2="87.6621" y1="45.6094" y2="45.6094"/>
            <text fill="#000000" font-family="sans-serif" font-size="14" font-weight="bold" lengthAdjust="spacing"
                  textLength="60.6621" x="18" y="38.5332">Common
            </text>
        </g><!--cluster Bericht-->
        <g class="cluster" data-qualified-name="Bericht" data-source-line="36" id="ent0006">
            <path d="M148.5,343.5 L197.7344,343.5 A3.75,3.75 0 0 1 200.2344,346 L207.2344,367.1094 L597.5,367.1094 A2.5,2.5 0 0 1 600,369.6094 L600,513 A2.5,2.5 0 0 1 597.5,515.5 L148.5,515.5 A2.5,2.5 0 0 1 146,513 L146,346 A2.5,2.5 0 0 1 148.5,343.5"
                  fill="none" style="stroke:#000000;stroke-width:1.5;"/>
            <line style="stroke:#000000;stroke-width:1.5;" x1="146" x2="207.2344" y1="367.1094" y2="367.1094"/>
            <text fill="#000000" font-family="sans-serif" font-size="14" font-weight="bold" lengthAdjust="spacing"
                  textLength="48.2344" x="150" y="360.0332">Bericht
            </text>
        </g><!--cluster Protokollierung-->
        <g class="cluster" data-qualified-name="Protokollierung" data-source-line="53" id="ent0010">
            <path d="M638.5,4 L742.9482,4 A3.75,3.75 0 0 1 745.4482,6.5 L752.4482,27.6094 L1607.5,27.6094 A2.5,2.5 0 0 1 1610,30.1094 L1610,574.5 A2.5,2.5 0 0 1 1607.5,577 L638.5,577 A2.5,2.5 0 0 1 636,574.5 L636,6.5 A2.5,2.5 0 0 1 638.5,4"
                  fill="none" style="stroke:#000000;stroke-width:1.5;"/>
            <line style="stroke:#000000;stroke-width:1.5;" x1="636" x2="752.4482" y1="27.6094" y2="27.6094"/>
            <text fill="#000000" font-family="sans-serif" font-size="14" font-weight="bold" lengthAdjust="spacing"
                  textLength="103.4482" x="640" y="20.5332">Protokollierung
            </text>
        </g><!--class MyAppBasisElement-->
        <g class="entity" data-qualified-name="Common..MyAppBasisElement" data-source-line="14" id="ent0002">
            <rect fill="#F1F1F1" height="206.4844" rx="2.5" ry="2.5" style="stroke:#181818;stroke-width:0.5;"
                  width="283.5918" x="336" y="50"/>
            <ellipse cx="408.9634" cy="66" fill="#ADD1B2" rx="11" ry="11" style="stroke:#181818;stroke-width:1;"/>
            <path d="M411.729,61.875 Q411.8853,61.6563 412.0728,61.5469 Q412.2603,61.4375 412.479,61.4375 Q412.854,61.4375 413.0884,61.7031 Q413.3228,61.9531 413.3228,62.5625 L413.3228,64.0156 Q413.3228,64.625 413.0884,64.8906 Q412.854,65.1563 412.479,65.1563 Q412.1353,65.1563 411.9321,64.9531 Q411.729,64.7656 411.6196,64.25 Q411.5728,63.8906 411.3853,63.7031 Q411.0571,63.3281 410.4478,63.1094 Q409.8384,62.8906 409.2134,62.8906 Q408.4478,62.8906 407.8071,63.2188 Q407.1821,63.5469 406.6821,64.2969 Q406.1978,65.0469 406.1978,66.0781 L406.1978,67.1719 Q406.1978,68.4063 407.0884,69.2344 Q407.979,70.0469 409.5728,70.0469 Q410.5103,70.0469 411.1665,69.7969 Q411.5571,69.6406 411.979,69.2031 Q412.2446,68.9375 412.3853,68.8594 Q412.5415,68.7813 412.7446,68.7813 Q413.0728,68.7813 413.3228,69.0469 Q413.5884,69.2969 413.5884,69.6406 Q413.5884,69.9844 413.2446,70.3906 Q412.7446,70.9688 411.9478,71.2969 Q410.8696,71.75 409.5728,71.75 Q408.0571,71.75 406.854,71.125 Q405.8696,70.625 405.1821,69.5625 Q404.4946,68.4844 404.4946,67.2031 L404.4946,66.0469 Q404.4946,64.7188 405.104,63.5781 Q405.729,62.4219 406.8228,61.8125 Q407.9165,61.1875 409.1509,61.1875 Q409.8853,61.1875 410.5259,61.3594 Q411.1821,61.5156 411.729,61.875 Z "
                  fill="#000000"/>
            <text fill="#000000" font-family="sans-serif" font-size="14" lengthAdjust="spacing" textLength="129.165"
                  x="429.4634" y="71.7285">MyAppBasisElement
            </text>
            <line style="stroke:#181818;stroke-width:0.5;" x1="337" x2="618.5918" y1="82" y2="82"/>
            <text fill="#000000" font-family="sans-serif" font-size="14" lengthAdjust="spacing"
                  text-decoration="underline" textLength="52.8965" x="342" y="100.5332">id: UUID
            </text>
            <text fill="#000000" font-family="sans-serif" font-size="14" lengthAdjust="spacing" textLength="79.3721"
                  x="342" y="118.1426">name: String
            </text>
            <text fill="#000000" font-family="sans-serif" font-size="14" lengthAdjust="spacing" textLength="128.4131"
                  x="342" y="135.752">beschreibung: String
            </text>
            <text fill="#000000" font-family="sans-serif" font-size="14" lengthAdjust="spacing" textLength="271.5918"
                  x="342" y="153.3613">letzterAenderungszeitpunkt: LocalDateTime
            </text>
            <text fill="#000000" font-family="sans-serif" font-size="14" lengthAdjust="spacing" textLength="168.0752"
                  x="342" y="170.9707">letzterBearbeiterUid: String
            </text>
            <text fill="#000000" font-family="sans-serif" font-size="14" lengthAdjust="spacing" textLength="96.4961"
                  x="342" y="188.5801">version: Integer
            </text>
            <text fill="#000000" font-family="sans-serif" font-size="14" lengthAdjust="spacing" textLength="121.3926"
                  x="342" y="206.1895">status: StatusEnum
            </text>
            <text fill="#000000" font-family="sans-serif" font-size="14" lengthAdjust="spacing" textLength="73.1445"
                  x="342" y="223.7988">alias: String
            </text>
            <text fill="#000000" font-family="sans-serif" font-size="14" lengthAdjust="spacing" textLength="108.9512"
                  x="342" y="241.4082">tags: List&lt;String&gt;
            </text>
            <line style="stroke:#181818;stroke-width:0.5;" x1="337" x2="618.5918" y1="248.4844" y2="248.4844"/>
        </g><!--class StatusEnum-->
        <g class="entity" data-qualified-name="Common..StatusEnum" data-source-line="27" id="ent0004">
            <rect fill="#F1F1F1" height="136.0469" rx="2.5" ry="2.5" style="stroke:#181818;stroke-width:0.5;"
                  width="295.2129" x="22.5" y="85"/>
            <ellipse cx="127.7256" cy="101" fill="#ADD1B2" rx="11" ry="11" style="stroke:#181818;stroke-width:1;"/>
            <path d="M130.4912,96.875 Q130.6475,96.6563 130.835,96.5469 Q131.0225,96.4375 131.2412,96.4375 Q131.6162,96.4375 131.8506,96.7031 Q132.085,96.9531 132.085,97.5625 L132.085,99.0156 Q132.085,99.625 131.8506,99.8906 Q131.6162,100.1563 131.2412,100.1563 Q130.8975,100.1563 130.6943,99.9531 Q130.4912,99.7656 130.3818,99.25 Q130.335,98.8906 130.1475,98.7031 Q129.8193,98.3281 129.21,98.1094 Q128.6006,97.8906 127.9756,97.8906 Q127.21,97.8906 126.5693,98.2188 Q125.9443,98.5469 125.4443,99.2969 Q124.96,100.0469 124.96,101.0781 L124.96,102.1719 Q124.96,103.4063 125.8506,104.2344 Q126.7412,105.0469 128.335,105.0469 Q129.2725,105.0469 129.9287,104.7969 Q130.3193,104.6406 130.7412,104.2031 Q131.0068,103.9375 131.1475,103.8594 Q131.3037,103.7813 131.5068,103.7813 Q131.835,103.7813 132.085,104.0469 Q132.3506,104.2969 132.3506,104.6406 Q132.3506,104.9844 132.0068,105.3906 Q131.5068,105.9688 130.71,106.2969 Q129.6318,106.75 128.335,106.75 Q126.8193,106.75 125.6162,106.125 Q124.6318,105.625 123.9443,104.5625 Q123.2568,103.4844 123.2568,102.2031 L123.2568,101.0469 Q123.2568,99.7188 123.8662,98.5781 Q124.4912,97.4219 125.585,96.8125 Q126.6787,96.1875 127.9131,96.1875 Q128.6475,96.1875 129.2881,96.3594 Q129.9443,96.5156 130.4912,96.875 Z "
                  fill="#000000"/>
            <text fill="#000000" font-family="sans-serif" font-size="14" lengthAdjust="spacing" textLength="76.2617"
                  x="148.2256" y="106.7285">StatusEnum
            </text>
            <line style="stroke:#181818;stroke-width:0.5;" x1="23.5" x2="316.7129" y1="117" y2="117"/>
            <text fill="#000000" font-family="sans-serif" font-size="14" lengthAdjust="spacing" textLength="216.3164"
                  x="28.5" y="135.5332">IN_BEARBEITUNG in Bearbeitung
            </text>
            <text fill="#000000" font-family="sans-serif" font-size="14" lengthAdjust="spacing" textLength="213.9785"
                  x="28.5" y="153.1426">ZUR_FREIGABE Freigabepr&#252;fung
            </text>
            <text fill="#000000" font-family="sans-serif" font-size="14" lengthAdjust="spacing" textLength="183.6338"
                  x="28.5" y="170.752">FREIGEGEBEN Freigegeben
            </text>
            <text fill="#000000" font-family="sans-serif" font-size="14" lengthAdjust="spacing" textLength="283.2129"
                  x="28.5" y="188.3613">ZUR_INAKTIVIERUNG Inaktivierungspr&#252;fung
            </text>
            <text fill="#000000" font-family="sans-serif" font-size="14" lengthAdjust="spacing" textLength="98.8066"
                  x="28.5" y="205.9707">INAKTIV Inaktiv
            </text>
            <line style="stroke:#181818;stroke-width:0.5;" x1="23.5" x2="316.7129" y1="213.0469" y2="213.0469"/>
        </g><!--class Bericht-->
        <g class="entity" data-qualified-name="Bericht..Bericht" data-source-line="36" id="ent0005">
            <rect fill="#F1F1F1" height="136.0469" rx="2.5" ry="2.5" style="stroke:#181818;stroke-width:0.5;"
                  width="226.8057" x="364.5" y="371.5"/>
            <ellipse cx="451.8667" cy="387.5" fill="#ADD1B2" rx="11" ry="11" style="stroke:#181818;stroke-width:1;"/>
            <path d="M454.6323,383.375 Q454.7886,383.1563 454.9761,383.0469 Q455.1636,382.9375 455.3823,382.9375 Q455.7573,382.9375 455.9917,383.2031 Q456.2261,383.4531 456.2261,384.0625 L456.2261,385.5156 Q456.2261,386.125 455.9917,386.3906 Q455.7573,386.6563 455.3823,386.6563 Q455.0386,386.6563 454.8354,386.4531 Q454.6323,386.2656 454.5229,385.75 Q454.4761,385.3906 454.2886,385.2031 Q453.9604,384.8281 453.3511,384.6094 Q452.7417,384.3906 452.1167,384.3906 Q451.3511,384.3906 450.7104,384.7188 Q450.0854,385.0469 449.5854,385.7969 Q449.1011,386.5469 449.1011,387.5781 L449.1011,388.6719 Q449.1011,389.9063 449.9917,390.7344 Q450.8823,391.5469 452.4761,391.5469 Q453.4136,391.5469 454.0698,391.2969 Q454.4604,391.1406 454.8823,390.7031 Q455.1479,390.4375 455.2886,390.3594 Q455.4448,390.2813 455.6479,390.2813 Q455.9761,390.2813 456.2261,390.5469 Q456.4917,390.7969 456.4917,391.1406 Q456.4917,391.4844 456.1479,391.8906 Q455.6479,392.4688 454.8511,392.7969 Q453.7729,393.25 452.4761,393.25 Q450.9604,393.25 449.7573,392.625 Q448.7729,392.125 448.0854,391.0625 Q447.3979,389.9844 447.3979,388.7031 L447.3979,387.5469 Q447.3979,386.2188 448.0073,385.0781 Q448.6323,383.9219 449.7261,383.3125 Q450.8198,382.6875 452.0542,382.6875 Q452.7886,382.6875 453.4292,382.8594 Q454.0854,383.0156 454.6323,383.375 Z "
                  fill="#000000"/>
            <text fill="#000000" font-family="sans-serif" font-size="14" lengthAdjust="spacing" textLength="43.5723"
                  x="472.3667" y="393.2285">Bericht
            </text>
            <line style="stroke:#181818;stroke-width:0.5;" x1="365.5" x2="590.3057" y1="403.5" y2="403.5"/>
            <text fill="#000000" font-family="sans-serif" font-size="14" lengthAdjust="spacing" textLength="214.8057"
                  x="370.5" y="422.0332">dbType: AbfrageDatenquelleEnum
            </text>
            <text fill="#000000" font-family="sans-serif" font-size="14" lengthAdjust="spacing" textLength="130.7373"
                  x="370.5" y="439.6426">institute: List&lt;String&gt;
            </text>
            <text fill="#000000" font-family="sans-serif" font-size="14" lengthAdjust="spacing" textLength="136.1787"
                  x="370.5" y="457.252">ablaufzeitraum: String
            </text>
            <text fill="#000000" font-family="sans-serif" font-size="14" lengthAdjust="spacing" textLength="186.7783"
                  x="370.5" y="474.8613">vertrieblicheNutzung: Boolean
            </text>
            <text fill="#000000" font-family="sans-serif" font-size="14" lengthAdjust="spacing" textLength="118.2891"
                  x="370.5" y="492.4707">berichtsinhalt: Blob
            </text>
            <line style="stroke:#181818;stroke-width:0.5;" x1="365.5" x2="590.3057" y1="499.5469" y2="499.5469"/>
        </g><!--class AbfrageDatenquelleEnum-->
        <g class="entity" data-qualified-name="Bericht..AbfrageDatenquelleEnum" data-source-line="46" id="ent0008">
            <rect fill="#F1F1F1" height="100.8281" rx="2.5" ry="2.5" style="stroke:#181818;stroke-width:0.5;"
                  width="192.3301" x="154" y="389"/>
            <ellipse cx="169" cy="405" fill="#ADD1B2" rx="11" ry="11" style="stroke:#181818;stroke-width:1;"/>
            <path d="M171.7656,400.875 Q171.9219,400.6563 172.1094,400.5469 Q172.2969,400.4375 172.5156,400.4375 Q172.8906,400.4375 173.125,400.7031 Q173.3594,400.9531 173.3594,401.5625 L173.3594,403.0156 Q173.3594,403.625 173.125,403.8906 Q172.8906,404.1563 172.5156,404.1563 Q172.1719,404.1563 171.9688,403.9531 Q171.7656,403.7656 171.6563,403.25 Q171.6094,402.8906 171.4219,402.7031 Q171.0938,402.3281 170.4844,402.1094 Q169.875,401.8906 169.25,401.8906 Q168.4844,401.8906 167.8438,402.2188 Q167.2188,402.5469 166.7188,403.2969 Q166.2344,404.0469 166.2344,405.0781 L166.2344,406.1719 Q166.2344,407.4063 167.125,408.2344 Q168.0156,409.0469 169.6094,409.0469 Q170.5469,409.0469 171.2031,408.7969 Q171.5938,408.6406 172.0156,408.2031 Q172.2813,407.9375 172.4219,407.8594 Q172.5781,407.7813 172.7813,407.7813 Q173.1094,407.7813 173.3594,408.0469 Q173.625,408.2969 173.625,408.6406 Q173.625,408.9844 173.2813,409.3906 Q172.7813,409.9688 171.9844,410.2969 Q170.9063,410.75 169.6094,410.75 Q168.0938,410.75 166.8906,410.125 Q165.9063,409.625 165.2188,408.5625 Q164.5313,407.4844 164.5313,406.2031 L164.5313,405.0469 Q164.5313,403.7188 165.1406,402.5781 Q165.7656,401.4219 166.8594,400.8125 Q167.9531,400.1875 169.1875,400.1875 Q169.9219,400.1875 170.5625,400.3594 Q171.2188,400.5156 171.7656,400.875 Z "
                  fill="#000000"/>
            <text fill="#000000" font-family="sans-serif" font-size="14" lengthAdjust="spacing" textLength="160.3301"
                  x="183" y="410.7285">AbfrageDatenquelleEnum
            </text>
            <line style="stroke:#181818;stroke-width:0.5;" x1="155" x2="345.3301" y1="421" y2="421"/>
            <text fill="#000000" font-family="sans-serif" font-size="14" lengthAdjust="spacing" textLength="73.9238"
                  x="160" y="439.5332">EXA Exasol
            </text>
            <text fill="#000000" font-family="sans-serif" font-size="14" lengthAdjust="spacing" textLength="178.9922"
                  x="160" y="457.1426">DATALAKE Data Lakehouse
            </text>
            <text fill="#000000" font-family="sans-serif" font-size="14" lengthAdjust="spacing" textLength="58.3584"
                  x="160" y="474.752">DB2 DB2
            </text>
            <line style="stroke:#181818;stroke-width:0.5;" x1="155" x2="345.3301" y1="481.8281" y2="481.8281"/>
        </g><!--class DimensionElement-->
        <g class="entity" data-qualified-name="Protokollierung..DimensionElement" data-source-line="53" id="ent0009">
            <rect fill="#F1F1F1" height="83.2188" rx="2.5" ry="2.5" style="stroke:#181818;stroke-width:0.5;"
                  width="149.4961" x="1277.5" y="398"/>
            <ellipse cx="1292.5" cy="414" fill="#ADD1B2" rx="11" ry="11" style="stroke:#181818;stroke-width:1;"/>
            <path d="M1295.2656,409.875 Q1295.4219,409.6563 1295.6094,409.5469 Q1295.7969,409.4375 1296.0156,409.4375 Q1296.3906,409.4375 1296.625,409.7031 Q1296.8594,409.9531 1296.8594,410.5625 L1296.8594,412.0156 Q1296.8594,412.625 1296.625,412.8906 Q1296.3906,413.1563 1296.0156,413.1563 Q1295.6719,413.1563 1295.4688,412.9531 Q1295.2656,412.7656 1295.1563,412.25 Q1295.1094,411.8906 1294.9219,411.7031 Q1294.5938,411.3281 1293.9844,411.1094 Q1293.375,410.8906 1292.75,410.8906 Q1291.9844,410.8906 1291.3438,411.2188 Q1290.7188,411.5469 1290.2188,412.2969 Q1289.7344,413.0469 1289.7344,414.0781 L1289.7344,415.1719 Q1289.7344,416.4063 1290.625,417.2344 Q1291.5156,418.0469 1293.1094,418.0469 Q1294.0469,418.0469 1294.7031,417.7969 Q1295.0938,417.6406 1295.5156,417.2031 Q1295.7813,416.9375 1295.9219,416.8594 Q1296.0781,416.7813 1296.2813,416.7813 Q1296.6094,416.7813 1296.8594,417.0469 Q1297.125,417.2969 1297.125,417.6406 Q1297.125,417.9844 1296.7813,418.3906 Q1296.2813,418.9688 1295.4844,419.2969 Q1294.4063,419.75 1293.1094,419.75 Q1291.5938,419.75 1290.3906,419.125 Q1289.4063,418.625 1288.7188,417.5625 Q1288.0313,416.4844 1288.0313,415.2031 L1288.0313,414.0469 Q1288.0313,412.7188 1288.6406,411.5781 Q1289.2656,410.4219 1290.3594,409.8125 Q1291.4531,409.1875 1292.6875,409.1875 Q1293.4219,409.1875 1294.0625,409.3594 Q1294.7188,409.5156 1295.2656,409.875 Z "
                  fill="#000000"/>
            <text fill="#000000" font-family="sans-serif" font-size="14" lengthAdjust="spacing" textLength="117.4961"
                  x="1306.5" y="419.7285">DimensionElement
            </text>
            <line style="stroke:#181818;stroke-width:0.5;" x1="1278.5" x2="1425.9961" y1="430" y2="430"/>
            <text fill="#000000" font-family="sans-serif" font-size="14" lengthAdjust="spacing"
                  text-decoration="underline" textLength="52.8965" x="1283.5" y="448.5332">id: UUID
            </text>
            <text fill="#000000" font-family="sans-serif" font-size="14" lengthAdjust="spacing" textLength="130.7305"
                  x="1283.5" y="466.1426">nameElement: String
            </text>
            <line style="stroke:#181818;stroke-width:0.5;" x1="1278.5" x2="1425.9961" y1="473.2188" y2="473.2188"/>
        </g><!--class DimensionUser-->
        <g class="entity" data-qualified-name="Protokollierung..DimensionUser" data-source-line="59" id="ent0011">
            <rect fill="#F1F1F1" height="83.2188" rx="2.5" ry="2.5" style="stroke:#181818;stroke-width:0.5;"
                  width="127.6963" x="644" y="398"/>
            <ellipse cx="659" cy="414" fill="#ADD1B2" rx="11" ry="11" style="stroke:#181818;stroke-width:1;"/>
            <path d="M661.7656,409.875 Q661.9219,409.6563 662.1094,409.5469 Q662.2969,409.4375 662.5156,409.4375 Q662.8906,409.4375 663.125,409.7031 Q663.3594,409.9531 663.3594,410.5625 L663.3594,412.0156 Q663.3594,412.625 663.125,412.8906 Q662.8906,413.1563 662.5156,413.1563 Q662.1719,413.1563 661.9688,412.9531 Q661.7656,412.7656 661.6563,412.25 Q661.6094,411.8906 661.4219,411.7031 Q661.0938,411.3281 660.4844,411.1094 Q659.875,410.8906 659.25,410.8906 Q658.4844,410.8906 657.8438,411.2188 Q657.2188,411.5469 656.7188,412.2969 Q656.2344,413.0469 656.2344,414.0781 L656.2344,415.1719 Q656.2344,416.4063 657.125,417.2344 Q658.0156,418.0469 659.6094,418.0469 Q660.5469,418.0469 661.2031,417.7969 Q661.5938,417.6406 662.0156,417.2031 Q662.2813,416.9375 662.4219,416.8594 Q662.5781,416.7813 662.7813,416.7813 Q663.1094,416.7813 663.3594,417.0469 Q663.625,417.2969 663.625,417.6406 Q663.625,417.9844 663.2813,418.3906 Q662.7813,418.9688 661.9844,419.2969 Q660.9063,419.75 659.6094,419.75 Q658.0938,419.75 656.8906,419.125 Q655.9063,418.625 655.2188,417.5625 Q654.5313,416.4844 654.5313,415.2031 L654.5313,414.0469 Q654.5313,412.7188 655.1406,411.5781 Q655.7656,410.4219 656.8594,409.8125 Q657.9531,409.1875 659.1875,409.1875 Q659.9219,409.1875 660.5625,409.3594 Q661.2188,409.5156 661.7656,409.875 Z "
                  fill="#000000"/>
            <text fill="#000000" font-family="sans-serif" font-size="14" lengthAdjust="spacing" textLength="95.6963"
                  x="673" y="419.7285">DimensionUser
            </text>
            <line style="stroke:#181818;stroke-width:0.5;" x1="645" x2="770.6963" y1="430" y2="430"/>
            <text fill="#000000" font-family="sans-serif" font-size="14" lengthAdjust="spacing"
                  text-decoration="underline" textLength="55.248" x="650" y="448.5332">id: String
            </text>
            <text fill="#000000" font-family="sans-serif" font-size="14" lengthAdjust="spacing" textLength="108.9307"
                  x="650" y="466.1426">nameUser: String
            </text>
            <line style="stroke:#181818;stroke-width:0.5;" x1="645" x2="770.6963" y1="473.2188" y2="473.2188"/>
        </g><!--class DimensionKennzahl-->
        <g class="entity" data-qualified-name="Protokollierung..DimensionKennzahl" data-source-line="65" id="ent0012">
            <rect fill="#F1F1F1" height="83.2188" rx="2.5" ry="2.5" style="stroke:#181818;stroke-width:0.5;"
                  width="156.5166" x="1444.5" y="398"/>
            <ellipse cx="1459.5" cy="414" fill="#ADD1B2" rx="11" ry="11" style="stroke:#181818;stroke-width:1;"/>
            <path d="M1462.2656,409.875 Q1462.4219,409.6563 1462.6094,409.5469 Q1462.7969,409.4375 1463.0156,409.4375 Q1463.3906,409.4375 1463.625,409.7031 Q1463.8594,409.9531 1463.8594,410.5625 L1463.8594,412.0156 Q1463.8594,412.625 1463.625,412.8906 Q1463.3906,413.1563 1463.0156,413.1563 Q1462.6719,413.1563 1462.4688,412.9531 Q1462.2656,412.7656 1462.1563,412.25 Q1462.1094,411.8906 1461.9219,411.7031 Q1461.5938,411.3281 1460.9844,411.1094 Q1460.375,410.8906 1459.75,410.8906 Q1458.9844,410.8906 1458.3438,411.2188 Q1457.7188,411.5469 1457.2188,412.2969 Q1456.7344,413.0469 1456.7344,414.0781 L1456.7344,415.1719 Q1456.7344,416.4063 1457.625,417.2344 Q1458.5156,418.0469 1460.1094,418.0469 Q1461.0469,418.0469 1461.7031,417.7969 Q1462.0938,417.6406 1462.5156,417.2031 Q1462.7813,416.9375 1462.9219,416.8594 Q1463.0781,416.7813 1463.2813,416.7813 Q1463.6094,416.7813 1463.8594,417.0469 Q1464.125,417.2969 1464.125,417.6406 Q1464.125,417.9844 1463.7813,418.3906 Q1463.2813,418.9688 1462.4844,419.2969 Q1461.4063,419.75 1460.1094,419.75 Q1458.5938,419.75 1457.3906,419.125 Q1456.4063,418.625 1455.7188,417.5625 Q1455.0313,416.4844 1455.0313,415.2031 L1455.0313,414.0469 Q1455.0313,412.7188 1455.6406,411.5781 Q1456.2656,410.4219 1457.3594,409.8125 Q1458.4531,409.1875 1459.6875,409.1875 Q1460.4219,409.1875 1461.0625,409.3594 Q1461.7188,409.5156 1462.2656,409.875 Z "
                  fill="#000000"/>
            <text fill="#000000" font-family="sans-serif" font-size="14" lengthAdjust="spacing" textLength="124.5166"
                  x="1473.5" y="419.7285">DimensionKennzahl
            </text>
            <line style="stroke:#181818;stroke-width:0.5;" x1="1445.5" x2="1600.0166" y1="430" y2="430"/>
            <text fill="#000000" font-family="sans-serif" font-size="14" lengthAdjust="spacing"
                  text-decoration="underline" textLength="62.2617" x="1450.5" y="448.5332">id: Integer
            </text>
            <text fill="#000000" font-family="sans-serif" font-size="14" lengthAdjust="spacing" textLength="137.751"
                  x="1450.5" y="466.1426">nameKennzahl: String
            </text>
            <line style="stroke:#181818;stroke-width:0.5;" x1="1445.5" x2="1600.0166" y1="473.2188" y2="473.2188"/>
        </g><!--class DimensionAktion-->
        <g class="entity" data-qualified-name="Protokollierung..DimensionAktion" data-source-line="71" id="ent0013">
            <rect fill="#F1F1F1" height="83.2188" rx="2.5" ry="2.5" style="stroke:#181818;stroke-width:0.5;"
                  width="137.0479" x="1122.5" y="398"/>
            <ellipse cx="1137.5" cy="414" fill="#ADD1B2" rx="11" ry="11" style="stroke:#181818;stroke-width:1;"/>
            <path d="M1140.2656,409.875 Q1140.4219,409.6563 1140.6094,409.5469 Q1140.7969,409.4375 1141.0156,409.4375 Q1141.3906,409.4375 1141.625,409.7031 Q1141.8594,409.9531 1141.8594,410.5625 L1141.8594,412.0156 Q1141.8594,412.625 1141.625,412.8906 Q1141.3906,413.1563 1141.0156,413.1563 Q1140.6719,413.1563 1140.4688,412.9531 Q1140.2656,412.7656 1140.1563,412.25 Q1140.1094,411.8906 1139.9219,411.7031 Q1139.5938,411.3281 1138.9844,411.1094 Q1138.375,410.8906 1137.75,410.8906 Q1136.9844,410.8906 1136.3438,411.2188 Q1135.7188,411.5469 1135.2188,412.2969 Q1134.7344,413.0469 1134.7344,414.0781 L1134.7344,415.1719 Q1134.7344,416.4063 1135.625,417.2344 Q1136.5156,418.0469 1138.1094,418.0469 Q1139.0469,418.0469 1139.7031,417.7969 Q1140.0938,417.6406 1140.5156,417.2031 Q1140.7813,416.9375 1140.9219,416.8594 Q1141.0781,416.7813 1141.2813,416.7813 Q1141.6094,416.7813 1141.8594,417.0469 Q1142.125,417.2969 1142.125,417.6406 Q1142.125,417.9844 1141.7813,418.3906 Q1141.2813,418.9688 1140.4844,419.2969 Q1139.4063,419.75 1138.1094,419.75 Q1136.5938,419.75 1135.3906,419.125 Q1134.4063,418.625 1133.7188,417.5625 Q1133.0313,416.4844 1133.0313,415.2031 L1133.0313,414.0469 Q1133.0313,412.7188 1133.6406,411.5781 Q1134.2656,410.4219 1135.3594,409.8125 Q1136.4531,409.1875 1137.6875,409.1875 Q1138.4219,409.1875 1139.0625,409.3594 Q1139.7188,409.5156 1140.2656,409.875 Z "
                  fill="#000000"/>
            <text fill="#000000" font-family="sans-serif" font-size="14" lengthAdjust="spacing" textLength="105.0479"
                  x="1151.5" y="419.7285">DimensionAktion
            </text>
            <line style="stroke:#181818;stroke-width:0.5;" x1="1123.5" x2="1258.5479" y1="430" y2="430"/>
            <text fill="#000000" font-family="sans-serif" font-size="14" lengthAdjust="spacing"
                  text-decoration="underline" textLength="62.2617" x="1128.5" y="448.5332">id: Integer
            </text>
            <text fill="#000000" font-family="sans-serif" font-size="14" lengthAdjust="spacing" textLength="118.2822"
                  x="1128.5" y="466.1426">nameAktion: String
            </text>
            <line style="stroke:#181818;stroke-width:0.5;" x1="1123.5" x2="1258.5479" y1="473.2188" y2="473.2188"/>
        </g><!--class DimensionDatum-->
        <g class="entity" data-qualified-name="Protokollierung..DimensionDatum" data-source-line="77" id="ent0014">
            <rect fill="#F1F1F1" height="259.3125" rx="2.5" ry="2.5" style="stroke:#181818;stroke-width:0.5;"
                  width="139.3721" x="790.5" y="310"/>
            <ellipse cx="805.5" cy="326" fill="#ADD1B2" rx="11" ry="11" style="stroke:#181818;stroke-width:1;"/>
            <path d="M808.2656,321.875 Q808.4219,321.6563 808.6094,321.5469 Q808.7969,321.4375 809.0156,321.4375 Q809.3906,321.4375 809.625,321.7031 Q809.8594,321.9531 809.8594,322.5625 L809.8594,324.0156 Q809.8594,324.625 809.625,324.8906 Q809.3906,325.1563 809.0156,325.1563 Q808.6719,325.1563 808.4688,324.9531 Q808.2656,324.7656 808.1563,324.25 Q808.1094,323.8906 807.9219,323.7031 Q807.5938,323.3281 806.9844,323.1094 Q806.375,322.8906 805.75,322.8906 Q804.9844,322.8906 804.3438,323.2188 Q803.7188,323.5469 803.2188,324.2969 Q802.7344,325.0469 802.7344,326.0781 L802.7344,327.1719 Q802.7344,328.4063 803.625,329.2344 Q804.5156,330.0469 806.1094,330.0469 Q807.0469,330.0469 807.7031,329.7969 Q808.0938,329.6406 808.5156,329.2031 Q808.7813,328.9375 808.9219,328.8594 Q809.0781,328.7813 809.2813,328.7813 Q809.6094,328.7813 809.8594,329.0469 Q810.125,329.2969 810.125,329.6406 Q810.125,329.9844 809.7813,330.3906 Q809.2813,330.9688 808.4844,331.2969 Q807.4063,331.75 806.1094,331.75 Q804.5938,331.75 803.3906,331.125 Q802.4063,330.625 801.7188,329.5625 Q801.0313,328.4844 801.0313,327.2031 L801.0313,326.0469 Q801.0313,324.7188 801.6406,323.5781 Q802.2656,322.4219 803.3594,321.8125 Q804.4531,321.1875 805.6875,321.1875 Q806.4219,321.1875 807.0625,321.3594 Q807.7188,321.5156 808.2656,321.875 Z "
                  fill="#000000"/>
            <text fill="#000000" font-family="sans-serif" font-size="14" lengthAdjust="spacing" textLength="107.3721"
                  x="819.5" y="331.7285">DimensionDatum
            </text>
            <line style="stroke:#181818;stroke-width:0.5;" x1="791.5" x2="928.8721" y1="342" y2="342"/>
            <text fill="#000000" font-family="sans-serif" font-size="14" lengthAdjust="spacing"
                  text-decoration="underline" textLength="62.2617" x="796.5" y="360.5332">id: Integer
            </text>
            <text fill="#000000" font-family="sans-serif" font-size="14" lengthAdjust="spacing" textLength="109.7305"
                  x="796.5" y="378.1426">datum: LocalDate
            </text>
            <text fill="#000000" font-family="sans-serif" font-size="14" lengthAdjust="spacing" textLength="74.71"
                  x="796.5" y="395.752">jahr: Integer
            </text>
            <text fill="#000000" font-family="sans-serif" font-size="14" lengthAdjust="spacing" textLength="90.2754"
                  x="796.5" y="413.3613">monat: Integer
            </text>
            <text fill="#000000" font-family="sans-serif" font-size="14" lengthAdjust="spacing" textLength="117.5098"
                  x="796.5" y="430.9707">monatJahr: Integer
            </text>
            <text fill="#000000" font-family="sans-serif" font-size="14" lengthAdjust="spacing" textLength="70.8271"
                  x="796.5" y="448.5801">tag: Integer
            </text>
            <text fill="#000000" font-family="sans-serif" font-size="14" lengthAdjust="spacing" textLength="97.2822"
                  x="796.5" y="466.1895">tagCode: String
            </text>
            <text fill="#000000" font-family="sans-serif" font-size="14" lengthAdjust="spacing" textLength="113.6133"
                  x="796.5" y="483.7988">tagImJahr: Integer
            </text>
            <text fill="#000000" font-family="sans-serif" font-size="14" lengthAdjust="spacing" textLength="126.0752"
                  x="796.5" y="501.4082">tagInWoche: Integer
            </text>
            <text fill="#000000" font-family="sans-serif" font-size="14" lengthAdjust="spacing" textLength="94.1719"
                  x="796.5" y="519.0176">quartal: Integer
            </text>
            <text fill="#000000" font-family="sans-serif" font-size="14" lengthAdjust="spacing" textLength="85.5996"
                  x="796.5" y="536.627">tertial: Integer
            </text>
            <text fill="#000000" font-family="sans-serif" font-size="14" lengthAdjust="spacing" textLength="91.834"
                  x="796.5" y="554.2363">woche: Integer
            </text>
            <line style="stroke:#181818;stroke-width:0.5;" x1="791.5" x2="928.8721" y1="561.3125" y2="561.3125"/>
        </g><!--class DimensionInstitut-->
        <g class="entity" data-qualified-name="Protokollierung..DimensionInstitut" data-source-line="93" id="ent0015">
            <rect fill="#F1F1F1" height="100.8281" rx="2.5" ry="2.5" style="stroke:#181818;stroke-width:0.5;"
                  width="157.4961" x="947.5" y="389"/>
            <ellipse cx="970.6527" cy="405" fill="#ADD1B2" rx="11" ry="11" style="stroke:#181818;stroke-width:1;"/>
            <path d="M973.4184,400.875 Q973.5746,400.6563 973.7621,400.5469 Q973.9496,400.4375 974.1684,400.4375 Q974.5434,400.4375 974.7777,400.7031 Q975.0121,400.9531 975.0121,401.5625 L975.0121,403.0156 Q975.0121,403.625 974.7777,403.8906 Q974.5434,404.1563 974.1684,404.1563 Q973.8246,404.1563 973.6215,403.9531 Q973.4184,403.7656 973.309,403.25 Q973.2621,402.8906 973.0746,402.7031 Q972.7465,402.3281 972.1371,402.1094 Q971.5277,401.8906 970.9027,401.8906 Q970.1371,401.8906 969.4965,402.2188 Q968.8715,402.5469 968.3715,403.2969 Q967.8871,404.0469 967.8871,405.0781 L967.8871,406.1719 Q967.8871,407.4063 968.7777,408.2344 Q969.6684,409.0469 971.2621,409.0469 Q972.1996,409.0469 972.8559,408.7969 Q973.2465,408.6406 973.6684,408.2031 Q973.934,407.9375 974.0746,407.8594 Q974.2309,407.7813 974.434,407.7813 Q974.7621,407.7813 975.0121,408.0469 Q975.2777,408.2969 975.2777,408.6406 Q975.2777,408.9844 974.934,409.3906 Q974.434,409.9688 973.6371,410.2969 Q972.559,410.75 971.2621,410.75 Q969.7465,410.75 968.5434,410.125 Q967.559,409.625 966.8715,408.5625 Q966.184,407.4844 966.184,406.2031 L966.184,405.0469 Q966.184,403.7188 966.7934,402.5781 Q967.4184,401.4219 968.5121,400.8125 Q969.6059,400.1875 970.8402,400.1875 Q971.5746,400.1875 972.2152,400.3594 Q972.8715,400.5156 973.4184,400.875 Z "
                  fill="#000000"/>
            <text fill="#000000" font-family="sans-serif" font-size="14" lengthAdjust="spacing" textLength="107.3789"
                  x="986.4645" y="410.7285">DimensionInstitut
            </text>
            <line style="stroke:#181818;stroke-width:0.5;" x1="948.5" x2="1103.9961" y1="421" y2="421"/>
            <text fill="#000000" font-family="sans-serif" font-size="14" lengthAdjust="spacing"
                  text-decoration="underline" textLength="55.248" x="953.5" y="439.5332">id: String
            </text>
            <text fill="#000000" font-family="sans-serif" font-size="14" lengthAdjust="spacing" textLength="145.4961"
                  x="953.5" y="457.1426">institutNummer: Integer
            </text>
            <text fill="#000000" font-family="sans-serif" font-size="14" lengthAdjust="spacing" textLength="129.9648"
                  x="953.5" y="474.752">regionGruppe: String
            </text>
            <line style="stroke:#181818;stroke-width:0.5;" x1="948.5" x2="1103.9961" y1="481.8281" y2="481.8281"/>
        </g><!--class FactNutzungInhalt-->
        <g class="entity" data-qualified-name="Protokollierung..FactNutzungInhalt" data-source-line="100" id="ent0016">
            <rect fill="#F1F1F1" height="241.7031" rx="2.5" ry="2.5" style="stroke:#181818;stroke-width:0.5;"
                  width="200.3369" x="1114" y="32"/>
            <ellipse cx="1153.6226" cy="48" fill="#ADD1B2" rx="11" ry="11" style="stroke:#181818;stroke-width:1;"/>
            <path d="M1156.3882,43.875 Q1156.5444,43.6563 1156.7319,43.5469 Q1156.9194,43.4375 1157.1382,43.4375 Q1157.5132,43.4375 1157.7476,43.7031 Q1157.9819,43.9531 1157.9819,44.5625 L1157.9819,46.0156 Q1157.9819,46.625 1157.7476,46.8906 Q1157.5132,47.1563 1157.1382,47.1563 Q1156.7944,47.1563 1156.5913,46.9531 Q1156.3882,46.7656 1156.2788,46.25 Q1156.2319,45.8906 1156.0444,45.7031 Q1155.7163,45.3281 1155.1069,45.1094 Q1154.4976,44.8906 1153.8726,44.8906 Q1153.1069,44.8906 1152.4663,45.2188 Q1151.8413,45.5469 1151.3413,46.2969 Q1150.8569,47.0469 1150.8569,48.0781 L1150.8569,49.1719 Q1150.8569,50.4063 1151.7476,51.2344 Q1152.6382,52.0469 1154.2319,52.0469 Q1155.1694,52.0469 1155.8257,51.7969 Q1156.2163,51.6406 1156.6382,51.2031 Q1156.9038,50.9375 1157.0444,50.8594 Q1157.2007,50.7813 1157.4038,50.7813 Q1157.7319,50.7813 1157.9819,51.0469 Q1158.2476,51.2969 1158.2476,51.6406 Q1158.2476,51.9844 1157.9038,52.3906 Q1157.4038,52.9688 1156.6069,53.2969 Q1155.5288,53.75 1154.2319,53.75 Q1152.7163,53.75 1151.5132,53.125 Q1150.5288,52.625 1149.8413,51.5625 Q1149.1538,50.4844 1149.1538,49.2031 L1149.1538,48.0469 Q1149.1538,46.7188 1149.7632,45.5781 Q1150.3882,44.4219 1151.4819,43.8125 Q1152.5757,43.1875 1153.8101,43.1875 Q1154.5444,43.1875 1155.1851,43.3594 Q1155.8413,43.5156 1156.3882,43.875 Z "
                  fill="#000000"/>
            <text fill="#000000" font-family="sans-serif" font-size="14" lengthAdjust="spacing" textLength="113.6201"
                  x="1173.0942" y="53.7285">FactNutzungInhalt
            </text>
            <line style="stroke:#181818;stroke-width:0.5;" x1="1115" x2="1313.3369" y1="64" y2="64"/>
            <text fill="#000000" font-family="sans-serif" font-size="14" lengthAdjust="spacing"
                  text-decoration="underline" textLength="52.8965" x="1120" y="82.5332">id: UUID
            </text>
            <text fill="#000000" font-family="sans-serif" font-size="14" lengthAdjust="spacing" textLength="172.7373"
                  x="1120" y="100.1426">zeitstempel: LocalDateTime
            </text>
            <text fill="#000000" font-family="sans-serif" font-size="14" lengthAdjust="spacing" textLength="130.71"
                  x="1120" y="117.752">user: DimensionUser
            </text>
            <text fill="#000000" font-family="sans-serif" font-size="14" lengthAdjust="spacing" textLength="154.0615"
                  x="1120" y="135.3613">datum: DimensionDatum
            </text>
            <text fill="#000000" font-family="sans-serif" font-size="14" lengthAdjust="spacing" textLength="175.082"
                  x="1120" y="152.9707">element: DimensionElement
            </text>
            <text fill="#000000" font-family="sans-serif" font-size="14" lengthAdjust="spacing" textLength="117.4961"
                  x="1120" y="170.5801">elementTyp: String
            </text>
            <text fill="#000000" font-family="sans-serif" font-size="14" lengthAdjust="spacing" textLength="136.1787"
                  x="1120" y="188.1895">elementModus: String
            </text>
            <text fill="#000000" font-family="sans-serif" font-size="14" lengthAdjust="spacing" textLength="150.1855"
                  x="1120" y="205.7988">aktion: DimensionAktion
            </text>
            <text fill="#000000" font-family="sans-serif" font-size="14" lengthAdjust="spacing" textLength="188.3369"
                  x="1120" y="223.4082">kennzahl: DimensionKennzahl
            </text>
            <text fill="#000000" font-family="sans-serif" font-size="14" lengthAdjust="spacing" textLength="155.6201"
                  x="1120" y="241.0176">institut: DimensionInstitut
            </text>
            <text fill="#000000" font-family="sans-serif" font-size="14" lengthAdjust="spacing" textLength="105.0273"
                  x="1120" y="258.627">wert: BigDecimal
            </text>
            <line style="stroke:#181818;stroke-width:0.5;" x1="1115" x2="1313.3369" y1="265.7031" y2="265.7031"/>
        </g><!--class FactNutzungAnwendung-->
        <g class="entity" data-qualified-name="Protokollierung..FactNutzungAnwendung" data-source-line="121"
           id="ent0023">
            <rect fill="#F1F1F1" height="153.6563" rx="2.5" ry="2.5" style="stroke:#181818;stroke-width:0.5;"
                  width="185.3232" x="705.5" y="76"/>
            <ellipse cx="720.5" cy="92" fill="#ADD1B2" rx="11" ry="11" style="stroke:#181818;stroke-width:1;"/>
            <path d="M723.2656,87.875 Q723.4219,87.6563 723.6094,87.5469 Q723.7969,87.4375 724.0156,87.4375 Q724.3906,87.4375 724.625,87.7031 Q724.8594,87.9531 724.8594,88.5625 L724.8594,90.0156 Q724.8594,90.625 724.625,90.8906 Q724.3906,91.1563 724.0156,91.1563 Q723.6719,91.1563 723.4688,90.9531 Q723.2656,90.7656 723.1563,90.25 Q723.1094,89.8906 722.9219,89.7031 Q722.5938,89.3281 721.9844,89.1094 Q721.375,88.8906 720.75,88.8906 Q719.9844,88.8906 719.3438,89.2188 Q718.7188,89.5469 718.2188,90.2969 Q717.7344,91.0469 717.7344,92.0781 L717.7344,93.1719 Q717.7344,94.4063 718.625,95.2344 Q719.5156,96.0469 721.1094,96.0469 Q722.0469,96.0469 722.7031,95.7969 Q723.0938,95.6406 723.5156,95.2031 Q723.7813,94.9375 723.9219,94.8594 Q724.0781,94.7813 724.2813,94.7813 Q724.6094,94.7813 724.8594,95.0469 Q725.125,95.2969 725.125,95.6406 Q725.125,95.9844 724.7813,96.3906 Q724.2813,96.9688 723.4844,97.2969 Q722.4063,97.75 721.1094,97.75 Q719.5938,97.75 718.3906,97.125 Q717.4063,96.625 716.7188,95.5625 Q716.0313,94.4844 716.0313,93.2031 L716.0313,92.0469 Q716.0313,90.7188 716.6406,89.5781 Q717.2656,88.4219 718.3594,87.8125 Q719.4531,87.1875 720.6875,87.1875 Q721.4219,87.1875 722.0625,87.3594 Q722.7188,87.5156 723.2656,87.875 Z "
                  fill="#000000"/>
            <text fill="#000000" font-family="sans-serif" font-size="14" lengthAdjust="spacing" textLength="153.3232"
                  x="734.5" y="97.7285">FactNutzungAnwendung
            </text>
            <line style="stroke:#181818;stroke-width:0.5;" x1="706.5" x2="889.8232" y1="108" y2="108"/>
            <text fill="#000000" font-family="sans-serif" font-size="14" lengthAdjust="spacing"
                  text-decoration="underline" textLength="52.8965" x="711.5" y="126.5332">id: UUID
            </text>
            <text fill="#000000" font-family="sans-serif" font-size="14" lengthAdjust="spacing" textLength="172.7373"
                  x="711.5" y="144.1426">zeitstempel: LocalDateTime
            </text>
            <text fill="#000000" font-family="sans-serif" font-size="14" lengthAdjust="spacing" textLength="130.71"
                  x="711.5" y="161.752">user: DimensionUser
            </text>
            <text fill="#000000" font-family="sans-serif" font-size="14" lengthAdjust="spacing" textLength="154.0615"
                  x="711.5" y="179.3613">datum: DimensionDatum
            </text>
            <text fill="#000000" font-family="sans-serif" font-size="14" lengthAdjust="spacing" textLength="121.4063"
                  x="711.5" y="196.9707">komponente: String
            </text>
            <text fill="#000000" font-family="sans-serif" font-size="14" lengthAdjust="spacing" textLength="155.6201"
                  x="711.5" y="214.5801">institut: DimensionInstitut
            </text>
            <line style="stroke:#181818;stroke-width:0.5;" x1="706.5" x2="889.8232" y1="221.6563" y2="221.6563"/>
        </g><!--class FactEreignis-->
        <g class="entity" data-qualified-name="Protokollierung..FactEreignis" data-source-line="134" id="ent0027">
            <rect fill="#F1F1F1" height="241.7031" rx="2.5" ry="2.5" style="stroke:#181818;stroke-width:0.5;"
                  width="187.082" x="908.5" y="32"/>
            <ellipse cx="958.8877" cy="48" fill="#ADD1B2" rx="11" ry="11" style="stroke:#181818;stroke-width:1;"/>
            <path d="M961.6533,43.875 Q961.8096,43.6563 961.9971,43.5469 Q962.1846,43.4375 962.4033,43.4375 Q962.7783,43.4375 963.0127,43.7031 Q963.2471,43.9531 963.2471,44.5625 L963.2471,46.0156 Q963.2471,46.625 963.0127,46.8906 Q962.7783,47.1563 962.4033,47.1563 Q962.0596,47.1563 961.8564,46.9531 Q961.6533,46.7656 961.5439,46.25 Q961.4971,45.8906 961.3096,45.7031 Q960.9814,45.3281 960.3721,45.1094 Q959.7627,44.8906 959.1377,44.8906 Q958.3721,44.8906 957.7314,45.2188 Q957.1064,45.5469 956.6064,46.2969 Q956.1221,47.0469 956.1221,48.0781 L956.1221,49.1719 Q956.1221,50.4063 957.0127,51.2344 Q957.9033,52.0469 959.4971,52.0469 Q960.4346,52.0469 961.0908,51.7969 Q961.4814,51.6406 961.9033,51.2031 Q962.1689,50.9375 962.3096,50.8594 Q962.4658,50.7813 962.6689,50.7813 Q962.9971,50.7813 963.2471,51.0469 Q963.5127,51.2969 963.5127,51.6406 Q963.5127,51.9844 963.1689,52.3906 Q962.6689,52.9688 961.8721,53.2969 Q960.7939,53.75 959.4971,53.75 Q957.9814,53.75 956.7783,53.125 Q955.7939,52.625 955.1064,51.5625 Q954.4189,50.4844 954.4189,49.2031 L954.4189,48.0469 Q954.4189,46.7188 955.0283,45.5781 Q955.6533,44.4219 956.7471,43.8125 Q957.8408,43.1875 959.0752,43.1875 Q959.8096,43.1875 960.4502,43.3594 Q961.1064,43.5156 961.6533,43.875 Z "
                  fill="#000000"/>
            <text fill="#000000" font-family="sans-serif" font-size="14" lengthAdjust="spacing" textLength="77.8066"
                  x="979.3877" y="53.7285">FactEreignis
            </text>
            <line style="stroke:#181818;stroke-width:0.5;" x1="909.5" x2="1094.582" y1="64" y2="64"/>
            <text fill="#000000" font-family="sans-serif" font-size="14" lengthAdjust="spacing"
                  text-decoration="underline" textLength="52.8965" x="914.5" y="82.5332">id: UUID
            </text>
            <text fill="#000000" font-family="sans-serif" font-size="14" lengthAdjust="spacing" textLength="172.7373"
                  x="914.5" y="100.1426">zeitstempel: LocalDateTime
            </text>
            <text fill="#000000" font-family="sans-serif" font-size="14" lengthAdjust="spacing" textLength="130.71"
                  x="914.5" y="117.752">user: DimensionUser
            </text>
            <text fill="#000000" font-family="sans-serif" font-size="14" lengthAdjust="spacing" textLength="154.0615"
                  x="914.5" y="135.3613">datum: DimensionDatum
            </text>
            <text fill="#000000" font-family="sans-serif" font-size="14" lengthAdjust="spacing" textLength="175.082"
                  x="914.5" y="152.9707">element: DimensionElement
            </text>
            <text fill="#000000" font-family="sans-serif" font-size="14" lengthAdjust="spacing" textLength="117.4961"
                  x="914.5" y="170.5801">elementTyp: String
            </text>
            <text fill="#000000" font-family="sans-serif" font-size="14" lengthAdjust="spacing" textLength="136.1787"
                  x="914.5" y="188.1895">elementModus: String
            </text>
            <text fill="#000000" font-family="sans-serif" font-size="14" lengthAdjust="spacing" textLength="150.1855"
                  x="914.5" y="205.7988">aktion: DimensionAktion
            </text>
            <text fill="#000000" font-family="sans-serif" font-size="14" lengthAdjust="spacing" textLength="155.6201"
                  x="914.5" y="223.4082">institut: DimensionInstitut
            </text>
            <text fill="#000000" font-family="sans-serif" font-size="14" lengthAdjust="spacing" textLength="66.9238"
                  x="914.5" y="241.0176">feld: String
            </text>
            <text fill="#000000" font-family="sans-serif" font-size="14" lengthAdjust="spacing" textLength="70.7998"
                  x="914.5" y="258.627">wert: String
            </text>
            <line style="stroke:#181818;stroke-width:0.5;" x1="909.5" x2="1094.582" y1="265.7031" y2="265.7031"/>
        </g>
        <g class="link" data-entity-1="ent0002" data-entity-2="ent0005" data-link-type="extension" id="lnk7">
            <polygon fill="none" points="478,256.3091,472,274.3091,484,274.3091,478,256.3091"
                     style="stroke:#181818;stroke-width:1;"/>
            <path d="M478,274.3091 C478,312.5419 478,336.9636 478,371.2464" fill="none"
                  style="stroke:#181818;stroke-width:1;"/>
        </g>
        <g class="link" data-entity-1="ent0016" data-entity-2="ent0011" data-link-type="composition" id="lnk17">
            <polygon fill="#181818"
                     points="1113.6768,268.6061,1106.4722,268.2989,1103.4177,274.8311,1110.6222,275.1383,1113.6768,268.6061"
                     style="stroke:#181818;stroke-width:1;"/>
            <path d="M1103.4177,274.8311 C974.6306,340.2381 901.6175,230.5292 781,310 C750.1476,330.3276 730.9065,368.4448 719.9759,397.9066"
                  fill="none" style="stroke:#181818;stroke-width:1;"/>
            <text fill="#000000" font-family="sans-serif" font-size="13" lengthAdjust="spacing" textLength="7.23"
                  x="711.9759" y="394.4017">1
            </text>
        </g>
        <g class="link" data-entity-1="ent0016" data-entity-2="ent0014" data-link-type="aggregation" id="lnk18">
            <polygon fill="none"
                     points="1113.7924,267.92,1106.5813,267.9228,1103.8103,274.5803,1111.0215,274.5775,1113.7924,267.92"
                     style="stroke:#181818;stroke-width:1;"/>
            <path d="M1103.8103,274.5803 C1038.3415,312.1701 999.4682,266.1728 938,310 C935.1314,312.0454 932.3484,314.2323 929.65,316.5403"
                  fill="none" style="stroke:#181818;stroke-width:1;"/>
            <text fill="#000000" font-family="sans-serif" font-size="13" lengthAdjust="spacing" textLength="7.23"
                  x="930.65" y="313.0354">1
            </text>
        </g>
        <g class="link" data-entity-1="ent0016" data-entity-2="ent0009" data-link-type="composition" id="lnk19">
            <polygon fill="#181818"
                     points="1272.3244,274.2412,1271.344,281.3854,1277.5615,285.0381,1278.5419,277.894,1272.3244,274.2412"
                     style="stroke:#181818;stroke-width:1;"/>
            <path d="M1277.5615,285.0381 C1298.9679,329.1692 1316.5419,365.3997 1332.246,397.7753" fill="none"
                  style="stroke:#181818;stroke-width:1;"/>
            <text fill="#000000" font-family="sans-serif" font-size="13" lengthAdjust="spacing" textLength="7.23"
                  x="1324.246" y="394.2704">1
            </text>
        </g>
        <g class="link" data-entity-1="ent0016" data-entity-2="ent0013" data-link-type="aggregation" id="lnk20">
            <polygon fill="none"
                     points="1204.2793,274.2412,1199.8088,279.8994,1203.3123,286.2022,1207.7828,280.5441,1204.2793,274.2412"
                     style="stroke:#181818;stroke-width:1;"/>
            <path d="M1203.3123,286.2022 C1199.7446,330.3333 1196.9097,365.3997 1194.2923,397.7753" fill="none"
                  style="stroke:#181818;stroke-width:1;"/>
            <text fill="#000000" font-family="sans-serif" font-size="13" lengthAdjust="spacing" textLength="7.23"
                  x="1186.2923" y="394.2704">1
            </text>
        </g>
        <g class="link" data-entity-1="ent0016" data-entity-2="ent0012" data-link-type="aggregation" id="lnk21">
            <polygon fill="none"
                     points="1314.2116,213.1983,1317.0226,219.839,1324.2336,219.7984,1321.4226,213.1577,1314.2116,213.1983"
                     style="stroke:#181818;stroke-width:1;"/>
            <path d="M1324.2336,219.7984 C1364.6528,246.4166 1400.0928,273.463 1436,310 C1461.7766,336.2287 1484.7995,371.0202 1500.6768,397.7862"
                  fill="none" style="stroke:#181818;stroke-width:1;"/>
            <text fill="#000000" font-family="sans-serif" font-size="13" lengthAdjust="spacing" textLength="7.23"
                  x="1492.6768" y="394.2813">1
            </text>
        </g>
        <g class="link" data-entity-1="ent0016" data-entity-2="ent0015" data-link-type="composition" id="lnk22">
            <polygon fill="#181818"
                     points="1134.5436,274.2412,1127.8985,277.0418,1127.9278,284.2528,1134.5729,281.4523,1134.5436,274.2412"
                     style="stroke:#181818;stroke-width:1;"/>
            <path d="M1127.9278,284.2528 C1101.3712,324.441 1079.8431,357.0193 1058.8693,388.7589" fill="none"
                  style="stroke:#181818;stroke-width:1;"/>
            <text fill="#000000" font-family="sans-serif" font-size="13" lengthAdjust="spacing" textLength="7.23"
                  x="1050.8693" y="385.2541">1
            </text>
        </g>
        <g class="link" data-entity-1="ent0023" data-entity-2="ent0011" data-link-type="composition" id="lnk24">
            <polygon fill="#181818"
                     points="773.8817,230.2408,768.2583,234.7549,770.2623,241.6819,775.8857,237.1678,773.8817,230.2408"
                     style="stroke:#181818;stroke-width:1;"/>
            <path d="M770.2623,241.6819 C753.2359,295.5043 734.7042,354.0852 720.9195,397.6601" fill="none"
                  style="stroke:#181818;stroke-width:1;"/>
            <text fill="#000000" font-family="sans-serif" font-size="13" lengthAdjust="spacing" textLength="7.23"
                  x="721.9195" y="394.1552">1
            </text>
        </g>
        <g class="link" data-entity-1="ent0023" data-entity-2="ent0014" data-link-type="aggregation" id="lnk25">
            <polygon fill="none"
                     points="814.6149,230.2408,811.9842,236.9549,817.17,241.9656,819.8007,235.2515,814.6149,230.2408"
                     style="stroke:#181818;stroke-width:1;"/>
            <path d="M817.17,241.9656 C822.5146,266.4902 826.0369,282.6533 831.9682,309.8702" fill="none"
                  style="stroke:#181818;stroke-width:1;"/>
            <text fill="#000000" font-family="sans-serif" font-size="13" lengthAdjust="spacing" textLength="7.23"
                  x="823.9682" y="306.3653">1
            </text>
        </g>
        <g class="link" data-entity-1="ent0023" data-entity-2="ent0015" data-link-type="composition" id="lnk26">
            <polygon fill="#181818"
                     points="859.6238,230.1618,860.4845,237.3213,867.4244,239.2805,866.5637,232.121,859.6238,230.1618"
                     style="stroke:#181818;stroke-width:1;"/>
            <path d="M867.4244,239.2805 C880.1167,254.1177 885.8337,260.2167 899,274 C915.2938,291.0574 922.5716,292.156 938,310 C959.1333,334.4422 979.7118,364.0653 995.6485,388.7066"
                  fill="none" style="stroke:#181818;stroke-width:1;"/>
            <text fill="#000000" font-family="sans-serif" font-size="13" lengthAdjust="spacing" textLength="7.23"
                  x="987.6485" y="385.2017">1
            </text>
        </g>
        <g class="link" data-entity-1="ent0027" data-entity-2="ent0011" data-link-type="composition" id="lnk28">
            <polygon fill="#181818"
                     points="908.1815,267.5761,900.9804,267.9553,898.5607,274.7483,905.7618,274.3692,908.1815,267.5761"
                     style="stroke:#181818;stroke-width:1;"/>
            <path d="M898.5607,274.7483 C852.6607,304.7418 823.802,275.7303 781,310 C752.6592,332.6912 733.3457,369.5567 721.7386,397.9948"
                  fill="none" style="stroke:#181818;stroke-width:1;"/>
            <text fill="#000000" font-family="sans-serif" font-size="13" lengthAdjust="spacing" textLength="7.23"
                  x="713.7386" y="394.4899">1
            </text>
        </g>
        <g class="link" data-entity-1="ent0027" data-entity-2="ent0014" data-link-type="aggregation" id="lnk29">
            <polygon fill="none"
                     points="941.985,274.2412,935.7266,277.8234,936.626,284.9781,942.8845,281.396,941.985,274.2412"
                     style="stroke:#181818;stroke-width:1;"/>
            <path d="M936.626,284.9781 C930.7976,296.6555 930.227,297.7986 924.3585,309.5564" fill="none"
                  style="stroke:#181818;stroke-width:1;"/>
            <text fill="#000000" font-family="sans-serif" font-size="13" lengthAdjust="spacing" textLength="7.23"
                  x="916.3585" y="306.0515">1
            </text>
        </g>
        <g class="link" data-entity-1="ent0027" data-entity-2="ent0009" data-link-type="composition" id="lnk30">
            <polygon fill="#181818"
                     points="1095.6068,267.9147,1098.2386,274.6284,1105.4481,274.7813,1102.8163,268.0676,1095.6068,267.9147"
                     style="stroke:#181818;stroke-width:1;"/>
            <path d="M1105.4481,274.7813 C1169.5006,313.0705 1207.6932,267.4527 1269,310 C1300.0914,331.5776 1322.2868,368.9488 1335.8563,397.8451"
                  fill="none" style="stroke:#181818;stroke-width:1;"/>
            <text fill="#000000" font-family="sans-serif" font-size="13" lengthAdjust="spacing" textLength="7.23"
                  x="1336.8563" y="394.3403">1
            </text>
        </g>
        <g class="link" data-entity-1="ent0027" data-entity-2="ent0013" data-link-type="aggregation" id="lnk31">
            <polygon fill="none"
                     points="1088.9296,274.3323,1089.0419,281.5425,1095.7407,284.212,1095.6284,277.0018,1088.9296,274.3323"
                     style="stroke:#181818;stroke-width:1;"/>
            <path d="M1095.7407,284.212 C1103.9934,296.1828 1105.326,298.3377 1113,310 C1132.0076,338.8862 1152.2346,372.2942 1167.3268,397.8049"
                  fill="none" style="stroke:#181818;stroke-width:1;"/>
            <text fill="#000000" font-family="sans-serif" font-size="13" lengthAdjust="spacing" textLength="7.23"
                  x="1159.3268" y="394.3">1
            </text>
        </g>
        <g class="link" data-entity-1="ent0027" data-entity-2="ent0015" data-link-type="composition" id="lnk32">
            <polygon fill="#181818"
                     points="1012.1434,274.2412,1008.6619,280.5563,1013.1521,286.1988,1016.6336,279.8838,1012.1434,274.2412"
                     style="stroke:#181818;stroke-width:1;"/>
            <path d="M1013.1521,286.1988 C1016.5423,326.3869 1019.1264,357.0193 1021.8039,388.7589" fill="none"
                  style="stroke:#181818;stroke-width:1;"/>
            <text fill="#000000" font-family="sans-serif" font-size="13" lengthAdjust="spacing" textLength="7.23"
                  x="1013.8039" y="385.2541">1
            </text>
        </g>
        <?plantuml-src rLPDRzj64BtpLsnpB913snjX620jMc3j284i9MqlmP0QKrikTvdTPHpRpJ_hhN-ii-A7AEeRKGyr85ZSdHc-UU_DG3-K6h82c81dLLbc2hGWmVDCpcK96WgM2Z26lNgC_a98yqohIYvkb53wwee5yWdbefAPoPMq-DMowsiM29vYA2gKUxBUkyfeKVUIFYwvnOT2vRWdQOePYY-eGIV8xU2LOuqeVqSXrDEUz0_xCfLOUDzw3RkqCfPBr9ouI97zGdIWPP8Wcn9IV40NQ9LclkzvNatGZIeA9Nt_tNDGbY4ORYA11KhxwhqQ2vQdtnXV-6m-ZqUUA-Mp1wkvpBm4JRhKo1C2rXqAj2_4Jq3aedQ8NmXvMSdS-knUfI16O7762smZGwoxGprthsdA45s64omMKxyPQiz1gOoxT_yZMHKU20wcox2GqSCzD_QgFhacSePDhhDhNyIJJs4KJCCediqdOyObQ-4Gz5N47_Fffzjf58-3C6Atr6q62PRwdxyVsuZLRJIEmcXI1n3Uf76GouudmTqi_X17K_UAM49k-HTUaxDHg0biGthmGv8qNLhVRxwyUejazboI547oI7E0ZbJvkI8RuOeQBesb7YmE6854GFNe9D5G5NsswGicPFybJYhxib8qL4eWID9vzLB3vH84oHWAbJXmUvt3hlvw-tOBz5Opkx7NmaI_1Ipw2aQ9rUCec0NtmLt4A1ZOFUIuL9Mf1suK_km-FRhUQsLLheIeMVRz4VbDEZyTiNPptV5oIicvGJsersIxYkxsh79tAEKBBCMWP3i6hcORSbRTW2obv86gTS1PDKaCfzVEaWjtrnjvxqzOwlKr6GViuF7NZGYQvus76xN0_h37nLPyB3ygCl3wx7C5seBe1P7HUV_WQJFXbAxZPhPsYzvEtgGg2kp1qvXHxbXNPOcda7mBgMqcCLxDtIxFka4s5eiInN2xLYlZRRYqrMHJFmzRqm-dfBsXJTCXRexUgKMrNhtGM6TWDY_lZBfbxuwdtbrBhFT4Aj6QuTa8Krw0S3mT9uZzI4ldpKzlZipgAPNKqKerTHS1rR9z4LmDynUfrMbraJOxTKzmVFVZx3ypVQwAKacY7RScTvSZZnYmmti93wwBNSA6vq0xIQB8_SIHtFmFzz4XXHzHh9TulO3MI_eW4T-bULVakxG-0yh1RNC6caEBvWmuBV__0W00?>
    </g>
</svg>